<svg xmlns="http://www.w3.org/2000/svg" viewBox="0 0 16 16"><path d="M8,16a8,8,0,1,1,8-8A8,8,0,0,1,8,16ZM8,1.37A6.63,6.63,0,1,0,14.63,8,6.64,6.64,0,0,0,8,1.37Z"/><rect x="3.77" y="8.41" width="1.92" height="2.19" rx="0.36" ry="0.36"/><path d="M12.56,9H3.42a.69.69,0,0,1-.69-.69.68.68,0,0,1,.69-.68h9.14a.67.67,0,0,1,.68.68A.68.68,0,0,1,12.56,9Z"/><path d="M12.56,6.91H3.42a.68.68,0,0,1-.69-.68.69.69,0,0,1,.69-.69h9.14a.68.68,0,0,1,.68.69A.67.67,0,0,1,12.56,6.91Z"/><rect x="10.26" y="8.41" width="1.92" height="2.19" rx="0.36" ry="0.36"/><rect x="7.01" y="8.41" width="1.92" height="2.19" rx="0.36" ry="0.36"/></svg>