<svg id="projectsSVG" data-name="Layer 1" xmlns="http://www.w3.org/2000/svg" viewBox="0 0 16 16">
    <title>WA CLient Icon</title>
    <path class="cls-1" d="M5.57,9.34l-.28-.21C5,8.9,3.9,8,3.9,8A.76.76,0,0,1,4,7.19a.77.77,0,0,1,.78-.27l.27.23.56.48L6.77,5.91a.69.69,0,1,1,1.14.76L6.2,9.22Z" />
    <path class="cls-1" d="M11.66,8.14H9.49a.68.68,0,0,1-.68-.69.67.67,0,0,1,.68-.68h2.17a.68.68,0,0,1,.68.68A.69.69,0,0,1,11.66,8.14Z" />
    <path class="cls-1" d="M11.66,12.37H4.74a.67.67,0,0,1-.68-.68A.68.68,0,0,1,4.74,11h6.92a.69.69,0,0,1,.68.69A.68.68,0,0,1,11.66,12.37Z" />
    <path class="cls-1" d="M15.08,16H.92A.92.92,0,0,1,0,15.08V.93A.93.93,0,0,1,.92,0H6.79a.93.93,0,0,1,.69.31L9.42,2.46h5.66a.92.92,0,0,1,.92.92v11.7A.92.92,0,0,1,15.08,16ZM1.37,14.63H14.63V3.83H8.81L6.59,1.37H1.37Z" />
</svg>